<?xml version="1.0" encoding="utf-8"?>
<!-- Generator: Adobe Illustrator 23.1.0, SVG Export Plug-In . SVG Version: 6.00 Build 0)  -->
<svg version="1.1" id="圖層_1" xmlns="http://www.w3.org/2000/svg" xmlns:xlink="http://www.w3.org/1999/xlink" x="0px" y="0px"
	 viewBox="0 0 850.4 850.4" style="enable-background:new 0 0 850.4 850.4;" xml:space="preserve">
<style type="text/css">
	.st0{fill:#FFFFFF;}
</style>
<g>
	<g>
		<path class="st0" d="M313.8,761.9c-2.1,0-4-0.1-5.8-0.1l-0.5,0c-0.6,0-1.2,0-1.9,0c-0.2,0-0.5,0-0.7,0c-2.9-0.2-5.8-0.5-8.6-0.8
			c-0.4,0-0.9-0.1-1.5-0.2c-38.3-5.1-83.7-28.1-96.5-77.4c0-0.1,0-0.1,0-0.2c-0.7-2.9-1.3-5.7-1.9-8.7c-0.1-0.8-0.3-1.7-0.4-2.6
			l-0.1-0.4c-0.3-1.8-0.6-3.8-0.8-5.9c0-0.1,0-0.1,0-0.2c-0.1-1-0.2-2-0.2-2.8c-0.1-1.8-0.2-3.8-0.2-5.8c0-0.6-0.1-1.6,0-2.7
			c0.1-2.7,0.3-5.4,0.6-7.9c0.1-0.6,0.1-1.1,0.2-1.7c0,0,0-0.1,0-0.1c0.3-2.3,0.7-4.2,1-6c0.1-0.3,0.1-0.5,0.2-0.8l0.3-1.4
			c0.1-0.4,0.2-0.8,0.3-1.2l0.2-0.6c0.3-1.1,0.6-2.3,1-3.4c0.2-0.8,0.5-1.7,0.9-2.8c0.6-1.7,1.3-3.4,1.9-5c0.2-0.4,0.3-0.8,0.5-1.2
			c0.1-0.2,0.2-0.4,0.3-0.6c0.9-2.1,1.9-4.1,3.1-6.2c0.2-0.4,0.5-0.8,0.7-1.3l0.2-0.3c0.1-0.2,0.2-0.3,0.3-0.5
			c0.8-1.3,1.5-2.6,2.3-3.8c0.1-0.2,0.3-0.4,0.4-0.6c0.2-0.3,0.4-0.6,0.6-0.9c0.1-0.2,0.2-0.3,0.3-0.5c0.7-1,1.4-2,2.1-3l0.3-0.3
			c0.5-0.7,1-1.5,1.7-2.3c1.1-1.5,2.2-2.8,3.3-4.1c0.1-0.1,0.2-0.2,0.3-0.3c0.2-0.2,0.4-0.5,0.6-0.7l0.3-0.4c1-1.2,2.1-2.4,3.1-3.6
			c0.5-0.6,1-1.1,1.5-1.7l0.8-0.8c0.6-0.7,1.2-1.3,1.9-2l1.4-1.4c0.8-0.8,1.6-1.6,2.4-2.5c0.4-0.4,0.8-0.8,1.2-1.2l0.2-0.2
			c0.3-0.3,0.6-0.6,0.9-0.9l1.1-1.1c1.9-1.9,3.7-3.8,5.6-5.6c11.9-11.9,18.7-20.3,21.1-30.5c5.5-23.4,18.2-69,41.8-112.2
			c31.3-57.5,70.8-90.5,117.3-98.3c15.5-2.6,29.3-3.8,42.2-3.8c18.1,0,34.2,2.5,49,7.7c0.4,0.1,0.8,0.2,1.1,0.4
			c3.3,1.2,6.3,2.4,9.2,3.7c0.3,0.1,0.6,0.3,1,0.4c13.5,6.2,25.5,14.7,36.9,25.8c0.1,0.1,0.2,0.2,0.3,0.3c2.4,2.3,4.7,4.8,7.1,7.4
			c0.4,0.4,0.7,0.8,1.1,1.2c2.5,2.8,4.8,5.7,6.8,8.1c0.3,0.4,0.7,0.8,1,1.2c2.7,3.5,5.1,6.7,7.3,9.9c26.7,38.3,34.7,73.2,49.1,136.5
			c2.4,10.4,18.4,31.3,29.1,45.2c7.8,10.1,15.1,19.7,20.2,28.2c7.6,12.8,12,28.2,12.5,44.6c0.2,4.3,0,8.4-0.2,11
			c0,0.3,0,0.5-0.1,0.8c0,0.2,0,0.3,0,0.5c-0.3,3.3-0.7,6.8-1.3,10.2c0,0.1,0,0.1,0,0.2l0,0.2c-0.1,0.5-0.2,1.1-0.3,1.6
			c-1.3,7.2-3.4,14.3-6,21.2c-0.1,0.4-0.3,0.7-0.4,1.1l-0.5,1.1c0,0.1-0.1,0.1-0.1,0.2c-1.1,2.6-2.3,5.1-3.6,7.7
			c-0.3,0.6-0.7,1.5-1.2,2.4c-1.6,3-3.5,6-5.5,8.8c-0.4,0.6-0.9,1.2-1.3,1.8c-0.1,0.1-0.2,0.2-0.3,0.4c-1.8,2.4-3.5,4.4-5.2,6.3
			c-0.2,0.2-0.4,0.4-0.6,0.6l-0.1,0.1c-0.5,0.5-0.9,1-1.4,1.5c-2.8,2.8-5.4,5.2-8.2,7.2c-21,15.6-43.8,23.5-68.1,23.5c0,0,0,0,0,0
			c-31,0-58.6-12.5-83-23.6c-17.5-7.9-34-15.4-46-15.4c-0.5,0-1.1,0-1.6,0c-2,0.1-3.3,0.2-4.4,0.3c-0.1,0-0.2,0-0.2,0
			c-10.1,1.1-16.4,3.7-30.4,9.5c-15.1,6.3-37.9,15.7-78.5,27.9c-2.8,0.9-5.9,1.6-9.2,2.3c-1.6,0.3-2.9,0.5-3.7,0.6l-0.5,0.1
			c-1.5,0.3-3.4,0.6-5.6,0.8c-1.7,0.2-3.3,0.2-4.9,0.3l-1,0c-0.2,0-0.4,0-0.5,0c-0.2,0-0.4,0-0.6,0c-0.8,0.1-1.6,0.1-2.5,0.1
			c-0.1,0-0.3,0-0.4,0C314.7,761.9,314.2,761.9,313.8,761.9z M307.7,708.9c0.6,0,1.1,0,1.7,0l0.6,0c1.3,0,2.5,0.1,3.7,0.1l0.2,0
			c0.2,0,0.3,0,0.5,0c0.7,0,1.4-0.1,2.2-0.1l0.9,0c0.8,0,1.6-0.1,2.3-0.1c0.4,0,1.3-0.2,2.2-0.3l0.4-0.1c0.1,0,0.2,0,0.3,0
			c0.6-0.1,1.3-0.2,2-0.3l0.3,0c1.3-0.3,2.7-0.6,3.8-0.9c38.1-11.4,58.6-19.9,73.6-26.1c15.8-6.5,27.2-11.3,44.8-13.2
			c2.7-0.3,5.4-0.5,7.4-0.6c1.5-0.1,3.1-0.1,4.7-0.1c23.4,0,46,10.2,67.9,20.2c20.5,9.3,41.6,18.9,61.1,18.9c0,0,0,0,0,0
			c13,0,24.5-4.1,36.4-13c0.5-0.4,1.2-1,2.1-1.9l0.1-0.1c0.2-0.3,0.5-0.5,0.7-0.8c0.6-0.6,1.2-1.4,1.9-2.3c0.3-0.3,0.5-0.7,0.8-1
			c0.8-1.2,1.5-2.4,2.2-3.5c0.2-0.4,0.4-0.8,0.5-1.1c0.7-1.3,1.4-2.7,1.9-4.1l0.1-0.3c0.2-0.4,0.4-0.9,0.6-1.3
			c1.4-3.6,2.4-7.4,3.1-11.2c0-0.1,0-0.3,0.1-0.4l0.1-0.5c0.3-1.9,0.5-3.8,0.7-5.6c0-0.3,0-0.7,0.1-1c0.1-2.2,0.2-3.9,0.1-5.3
			c-0.3-7.6-2-14.3-5.1-19.5c-3.4-5.8-9.9-14.2-16.7-23c-15.8-20.6-33.8-44-38.7-65.6c-14.9-65.5-21.1-89.6-41-118.1
			c-1.6-2.4-3.4-4.8-5.4-7.4c-0.2-0.3-0.5-0.6-0.7-0.9c-1.4-1.8-3-3.7-4.6-5.6c-0.3-0.3-0.7-0.7-1-1.1c-1.6-1.8-3.2-3.6-4.9-5.1
			c-0.2-0.2-0.4-0.4-0.6-0.6c-6.7-6.6-13.7-11.5-21.3-15.1c-0.2-0.1-0.5-0.2-0.7-0.3c-1.6-0.8-3.4-1.5-5.4-2.2
			c-0.2-0.1-0.4-0.1-0.6-0.2c-9.3-3.3-19.8-4.9-32.2-4.9c-9.9,0-20.9,1-33.4,3.1c-75.6,12.6-110.2,144.2-116.4,170.5
			c-5.8,24.6-21.1,41.6-35,55.6c-1.8,1.9-3.8,3.9-5.8,5.8l-1.5,1.5c-0.1,0.1-0.2,0.2-0.3,0.3l-0.5,0.5c-0.2,0.2-0.3,0.3-0.5,0.5
			c-0.1,0.1-0.2,0.2-0.4,0.4c-0.6,0.6-1.2,1.3-1.9,1.9l-1.4,1.4c-0.1,0.1-0.1,0.1-0.2,0.2c-0.3,0.3-0.7,0.7-1,1.1l-1.2,1.2
			c-0.2,0.2-0.4,0.4-0.6,0.6c-0.1,0.1-0.2,0.2-0.3,0.3c-0.8,0.8-1.5,1.7-2.2,2.5c-0.2,0.3-0.4,0.5-0.7,0.8c-0.6,0.7-1.3,1.5-2,2.5
			c-0.1,0.1-0.2,0.2-0.3,0.3l0,0c-0.1,0.2-0.3,0.4-0.4,0.5l-0.5,0.7c-0.3,0.4-0.5,0.7-0.8,1.1c-0.3,0.5-0.6,0.9-0.9,1.4
			c-0.4,0.6-0.8,1.3-1.2,1.9l-0.4,0.7c-0.4,0.8-0.8,1.5-1.1,2.3c-0.2,0.4-0.4,0.9-0.6,1.4c-0.1,0.3-0.4,0.8-0.6,1.6c0,0,0,0.1,0,0.1
			l-0.1,0.3c-0.1,0.2-0.1,0.5-0.2,0.7c-0.2,0.5-0.3,1.1-0.5,1.7l0,0.1c-0.1,0.4-0.2,0.7-0.2,1.1c-0.1,0.5-0.2,1.2-0.3,2
			c0,0.4-0.1,0.7-0.2,1.1c-0.1,0.8-0.1,1.6-0.2,2.5c0,0.5,0,0.9,0,1.4c0,1,0,1.9,0.1,2.6c0,0.1,0,0.3,0,0.4c0,0.4,0.1,0.7,0.1,1.1
			c0.1,0.8,0.2,1.9,0.4,3.1l0.2,1.4c0.3,1.8,0.7,3.4,1.1,5c6.2,23.7,30.7,35.2,51.8,38.1c0.4,0,0.8,0.1,1.2,0.1
			C304.2,708.6,305.9,708.7,307.7,708.9z"/>
		<path class="st0" d="M197.5,505.1c-0.3,0-0.5,0-0.8,0l-0.4,0c-2.3,0-4.7-0.1-7.1-0.3c-0.6,0-1.1-0.1-1.7-0.2l-0.2,0
			c-0.1,0-0.3,0-0.4,0c-3-0.3-5.9-0.8-8.7-1.5c-0.9-0.2-1.8-0.4-2.7-0.7c-2.1-0.5-4.3-1.2-6.5-1.9l-0.4-0.1
			c-0.4-0.1-0.8-0.3-1.2-0.4c-0.2-0.1-0.4-0.1-0.6-0.2c-2.9-1-5.6-2.2-7.6-3.1c-0.1,0-0.1-0.1-0.2-0.1c-1-0.4-1.9-0.9-2.9-1.3
			c-0.1,0-0.2-0.1-0.3-0.1c-1.8-0.9-3.4-1.7-4.8-2.5l-0.3-0.1c-0.1-0.1-0.2-0.1-0.3-0.2c-1.2-0.7-2.8-1.6-4.5-2.7
			c-1.4-0.8-2.8-1.8-4.3-2.8c-0.1-0.1-0.3-0.2-0.4-0.3l-0.6-0.4c-1-0.7-1.9-1.3-2.8-2c-1.4-1.1-2.9-2.2-4.3-3.3
			c-0.1-0.1-0.2-0.2-0.4-0.3c-1.4-1.1-3-2.5-4.7-4l-0.4-0.3c-1-0.8-1.9-1.7-2.8-2.6c-0.8-0.8-1.8-1.7-2.9-2.8
			c-0.5-0.4-0.9-0.9-1.4-1.4c-15-15.3-27.2-34.4-35.3-55.3c-14.6-37.6-14.9-76.3-0.6-106.1c9.8-20.6,26.3-35.4,46.4-41.8
			c7.4-2.3,15.1-3.5,23.1-3.5c12.1,0,24.4,2.7,36.6,8.1c0.8,0.3,1.5,0.6,2.2,1c3.4,1.6,6.9,3.5,10.3,5.5c0.1,0.1,0.3,0.2,0.4,0.2
			c0.4,0.3,0.8,0.5,1.3,0.8c3,1.9,6,3.9,8.7,6c0.9,0.7,1.7,1.3,2.5,2c2.2,1.8,4.6,3.7,7.2,6.1c0.2,0.2,0.4,0.3,0.5,0.5l0.4,0.3
			c0.5,0.5,1.1,1,1.6,1.5c3,2.8,5.8,5.7,8.5,8.7c0.1,0.1,0.2,0.3,0.4,0.4l0,0c2.6,2.9,5.2,6.1,8.2,10.1c0.1,0.1,0.1,0.2,0.2,0.3
			c0.5,0.6,0.9,1.3,1.4,2l0.5,0.7c2,2.8,3.8,5.4,5.4,8.1c0.8,1.3,1.6,2.6,2.4,4.1c1.5,2.6,3,5.3,4.4,8l0.5,0.9
			c0.4,0.9,0.9,1.7,1.3,2.6c0.1,0.1,0.1,0.2,0.2,0.4c2.1,4.3,3.9,8.4,5.5,12.5c14.7,37.7,14.9,76.4,0.6,106.2
			c-9.8,20.5-26.3,35.3-46.3,41.7c-3,1-6.1,1.7-9.5,2.3c-0.8,0.2-1.5,0.3-2.2,0.4c-3.2,0.5-6.2,0.8-9,0.8
			C198.4,505.1,198,505.1,197.5,505.1z M193.2,452.1c0.2,0,0.4,0,0.6,0c0.9,0.1,1.8,0.1,2.6,0.1l0.3,0c0.3,0,0.5,0,0.8,0
			c0.6,0,1.5-0.1,2.6-0.3c0,0,0.1,0,0.1,0l0.4-0.1c0.2,0,0.3-0.1,0.5-0.1c1-0.2,1.7-0.3,2.3-0.5c0.1,0,0.1,0,0.2-0.1
			c6.2-2,11.1-6.7,14.7-14.1c7.7-16.2,6.9-40.8-2.2-64.2c-1.1-2.7-2.3-5.5-3.8-8.5c-0.3-0.5-0.5-1-0.8-1.5l-0.7-1.2
			c0-0.1-0.1-0.1-0.1-0.2c-1-1.9-2-3.7-3-5.4c-0.1-0.2-0.3-0.5-0.4-0.7c-0.4-0.7-0.9-1.5-1.3-2.2c-1-1.7-2.2-3.4-3.6-5.3
			c-0.3-0.4-0.6-0.9-1-1.4c-0.2-0.2-0.3-0.5-0.5-0.7c-2-2.7-3.7-4.7-5.2-6.4c-0.2-0.2-0.3-0.4-0.5-0.6c-1.7-1.9-3.5-3.8-5.4-5.6
			c0,0-0.1-0.1-0.1-0.1l-0.4-0.3c-0.3-0.3-0.7-0.6-1-0.9c-1.7-1.5-3.2-2.8-4.6-3.9c0,0-0.1-0.1-0.1-0.1c-0.5-0.4-1-0.8-1.5-1.2
			c-1.4-1.1-3.1-2.2-4.8-3.3c-0.4-0.3-0.9-0.5-1.3-0.8c-1.7-1-3.4-1.9-5-2.6c-0.2-0.1-0.4-0.2-0.6-0.3c-8.5-3.9-16.4-4.9-23-2.8
			c-6.2,2-11.2,6.7-14.7,14.2c-7.7,16.2-6.9,40.7,2.2,64.1c5.6,14.3,13.8,27.3,23.9,37.6c0.2,0.2,0.4,0.4,0.7,0.6
			c0.6,0.7,1.3,1.3,1.9,1.9c0.6,0.6,1.2,1.1,1.7,1.6l0.4,0.4c1,0.9,2,1.7,2.9,2.5c0.9,0.7,1.8,1.4,2.7,2.1c0.5,0.4,1,0.7,1.5,1.1
			l0.5,0.3c0.8,0.6,1.7,1.1,2.5,1.6c0.9,0.6,1.7,1,2.5,1.4l0.1,0.1c0.9,0.5,1.8,1,2.7,1.5c0.6,0.3,1.2,0.6,1.8,0.8
			c1,0.4,2.2,1,3.2,1.3l0.2,0.1c0.4,0.1,0.8,0.2,1.2,0.4c0.1,0,0.2,0,0.2,0.1c0.9,0.3,1.8,0.6,2.6,0.8c0.4,0.1,0.7,0.2,1.1,0.3
			c0.1,0,0.2,0,0.3,0.1c1,0.2,2,0.4,3.1,0.5L193.2,452.1z"/>
		<path class="st0" d="M329.4,348.1c-2.4,0-4.6-0.1-6.8-0.3c-0.1,0-0.2,0-0.4,0c-0.5-0.1-1.1-0.1-1.6-0.2c-2.3-0.2-4.7-0.6-7.3-1.1
			l-0.2,0c-0.7-0.1-1.4-0.3-2-0.4c-0.1,0-0.1,0-0.2,0c-3-0.7-5.5-1.4-7.8-2.2c-0.6-0.2-1.3-0.4-1.9-0.6l-0.2-0.1
			c-0.3-0.1-0.6-0.2-0.9-0.3c-1.5-0.6-3.4-1.3-5.3-2.1c-0.2-0.1-0.4-0.2-0.6-0.2l-0.5-0.2c-0.4-0.2-0.8-0.3-1.2-0.5
			c-0.3-0.1-0.5-0.2-0.8-0.4c-2.2-1.1-4.4-2.2-6.4-3.4c-1.1-0.6-2.2-1.2-3.4-2c-1.4-0.8-2.8-1.8-4.2-2.7c-1.9-1.3-3.6-2.5-5-3.6
			c-1-0.8-2.2-1.6-3.4-2.6c-1.3-1-2.4-2-3.2-2.7l-0.3-0.3c0,0-0.1-0.1-0.1-0.1c-1-0.8-1.9-1.8-2.9-2.8c-1.7-1.6-3.5-3.4-5.4-5.4
			c-0.1-0.1-0.2-0.2-0.3-0.4l-0.4-0.4c-0.6-0.7-1.2-1.3-1.8-2c-1.1-1.2-2.1-2.4-3.1-3.7c0,0-0.1-0.1-0.1-0.1
			c-13.1-16.1-22.7-35.6-27.8-56.4c-8.5-34.9-3.7-69.7,13.3-95.5c12.9-19.7,32.2-32.6,54.2-36.3c19.2-3.2,39.9,0.8,58.5,11.4
			c0.3,0.2,0.5,0.3,0.8,0.5c3.2,1.9,6.3,3.9,9.6,6.3c0.2,0.1,0.3,0.2,0.5,0.3c0.3,0.2,0.6,0.4,0.8,0.6c0,0,0.1,0,0.1,0.1
			c2.6,2,5.2,4.1,7.6,6.3c0.8,0.7,1.5,1.3,1.9,1.8l0.3,0.2c0,0,0.1,0.1,0.1,0.1c2.2,2.1,4.4,4.3,6.8,6.9c0.1,0.1,0.2,0.2,0.2,0.3
			l1.3,1.5c0.1,0.1,0.2,0.2,0.3,0.3c2.7,3,5,6,7.1,8.9c0.2,0.2,0.3,0.5,0.5,0.7c2.3,3.2,4.5,6.6,6.8,10.5c0.5,0.8,0.9,1.6,1.3,2.4
			l0.2,0.5c1.7,3.1,3.1,5.7,4.3,8.2c0.5,0.9,0.9,1.9,1.3,2.9l0.3,0.7c0.1,0.2,0.2,0.3,0.2,0.5c1.1,2.6,2.2,5.4,3.3,8.1l0.4,1
			c0.3,0.9,0.7,1.8,1,2.7c1.5,4.4,2.7,8.5,3.7,12.5c8.5,34.9,3.7,69.8-13.3,95.6c-12.9,19.7-32.2,32.5-54.2,36.3c-3,0.5-6,0.8-9.3,1
			c-0.8,0.1-1.6,0.1-2.4,0.1C330.8,348.1,330.1,348.1,329.4,348.1z M327.6,295.2c0.8,0.1,1.8,0.1,2.8,0l0.8,0
			c1.3-0.1,2.4-0.2,3.2-0.3c7.5-1.3,13.8-5.7,18.8-13.2c8.8-13.4,11.1-33.5,6.1-53.9c-0.6-2.5-1.4-5.1-2.4-7.9
			c-0.1-0.4-0.3-0.8-0.4-1.2l-0.5-1.4c-0.6-1.7-1.3-3.5-2.1-5.2l-0.3-0.6c-0.2-0.5-0.5-1.1-0.8-1.6c-0.1-0.1-0.1-0.3-0.2-0.4
			c-0.7-1.5-1.5-3.1-2.6-5.1c-0.2-0.4-0.5-1-0.8-1.5l-0.2-0.4c-1.3-2.3-2.6-4.2-3.9-6c-0.1-0.2-0.2-0.3-0.4-0.5l0,0
			c-1.3-1.8-2.7-3.6-4.4-5.5l-0.3-0.3c-0.4-0.4-0.7-0.8-1.1-1.2c-1.3-1.4-2.5-2.7-3.6-3.7h0l-0.8-0.8c-0.2-0.2-0.5-0.4-0.7-0.6
			c-1.3-1.2-2.7-2.4-4.1-3.5c-0.4-0.3-0.8-0.6-1.2-0.9c-1.7-1.2-3.3-2.3-4.9-3.2c-0.2-0.1-0.4-0.2-0.6-0.4
			c-7.8-4.4-15.8-6.1-22.9-4.9c-7.6,1.3-13.9,5.7-18.8,13.2c-8.8,13.4-11.1,33.5-6.1,53.9c3.2,13.2,9.2,25.5,17.4,35.5
			c0.7,0.8,1.4,1.6,2.1,2.4c0.1,0.2,0.3,0.3,0.4,0.5c0.1,0.1,0.2,0.3,0.4,0.4l0.5,0.5c1.2,1.2,2.3,2.3,3.3,3.3
			c0.1,0.1,0.3,0.3,0.4,0.4c0.4,0.4,0.7,0.7,1.1,1.1l0.3,0.2c0.4,0.4,0.9,0.8,1.3,1.2c0.3,0.2,0.5,0.4,0.8,0.6
			c0.4,0.4,0.9,0.7,1.4,1.1c0.8,0.6,1.9,1.4,2.7,2c0.1,0.1,0.2,0.1,0.3,0.2c0.6,0.4,1.2,0.8,1.8,1.2c0.1,0.1,0.2,0.1,0.3,0.2
			c0.4,0.2,0.8,0.5,1.1,0.7c0.2,0.1,0.4,0.2,0.6,0.4c0.9,0.5,1.8,1,2.8,1.5l0.2,0.1c0.4,0.2,0.8,0.3,1.2,0.5c0.9,0.4,1.8,0.7,2.6,1
			c0.3,0.1,0.7,0.2,1,0.4l0.1,0c0.1,0,0.3,0.1,0.4,0.1c0.8,0.3,1.7,0.5,2.9,0.8l0,0c0.4,0.1,0.7,0.1,1.1,0.2c1,0.2,1.8,0.3,2.5,0.4
			c0.4,0,0.8,0.1,1.2,0.1L327.6,295.2z"/>
		<path class="st0" d="M679.3,442.2C679.3,442.2,679.3,442.2,679.3,442.2c-12,0-23.3-2.5-33.8-7.5c-2.7-1.3-5.5-2.8-8.4-4.7l0,0
			l-0.5-0.3l0.2,0.1c-0.5-0.3-1-0.6-1.5-0.9c-2.5-1.7-4.8-3.5-6.9-5.3c-0.7-0.6-1.3-1.1-1.8-1.6c-2-1.8-3.8-3.7-5.4-5.5
			c-0.3-0.3-0.5-0.6-0.8-0.9l-0.1-0.2c-0.1-0.1-0.1-0.2-0.2-0.3c-1.9-2.2-3.6-4.5-5.4-7.1c-0.4-0.6-0.8-1.2-1.2-1.8l0,0
			c-0.1-0.1-0.2-0.2-0.2-0.4c-1.3-2.1-2.5-4.1-3.5-6.1l0,0c-0.3-0.6-0.6-1.2-1-1.8c-0.1-0.2-0.2-0.3-0.3-0.5
			c-1.1-2.3-2.1-4.7-3.1-7.2c-0.4-1.1-0.8-2.2-1.2-3.4c-0.6-1.8-1.2-3.7-1.8-5.7c-0.4-1.5-0.8-3.1-1.2-4.9c-0.4-1.8-0.8-3.5-1-5.1
			c-0.3-1.5-0.5-2.9-0.7-4.2c-0.2-1.4-0.4-2.9-0.5-4.4l-0.1-0.7c0-0.3-0.1-0.6-0.1-0.8c-0.1-1.9-0.3-3.8-0.3-5.7c0-0.3,0-0.5,0-0.8
			l0-1c0-0.9,0-1.7,0-2.6c0-1.4,0-2.8,0-4.3c0-0.5,0-1,0.1-1.5c0.9-20.7,6.7-42.1,16.9-62c23.7-46.3,65.9-76.2,107.5-76.2
			c12,0,23.3,2.5,33.8,7.5c18.3,8.6,32.2,24,40.1,44.3c0.2,0.4,0.3,0.9,0.5,1.3c1.4,3.8,2.6,7.6,3.5,11.5c0.1,0.6,0.3,1.2,0.4,1.8
			l0-0.1c0,0.1,0,0.2,0.1,0.3c0.7,3.4,1.3,6.6,1.7,9.9c0.1,1.1,0.3,2.2,0.4,3.2c0.3,3,0.5,6.2,0.6,9.4l0,0.4c0,0.9,0.1,1.7,0.1,2.7
			c0,4.2-0.2,7.9-0.5,11.5c0,0.4-0.1,0.7-0.1,1.1c-0.4,3.9-1,8.1-1.8,12.4c0,0.2-0.1,0.4-0.1,0.6c-0.1,0.7-0.3,1.4-0.5,2.1
			c-0.1,0.2-0.1,0.4-0.2,0.7c0,0,0,0.2,0,0.2c-0.8,3.5-1.5,6.4-2.3,9.3c-0.4,1.4-0.8,2.8-1.3,4.2c-0.8,2.6-1.8,5.4-3,8.5l-0.1,0.2
			c-0.4,1.1-0.9,2.4-1.5,4c-1.7,4.2-3.6,8.4-5.6,12.2C763.1,412.3,720.9,442.2,679.3,442.2z M664.8,385c0.2,0.1,0.4,0.2,0.5,0.3
			c0.1,0,0.2,0.1,0.3,0.2c1,0.7,1.9,1.1,2.6,1.5c3.3,1.6,7.1,2.4,11.2,2.4c24.8,0,48.7-24.6,60.4-47.4c1.3-2.6,2.6-5.3,3.7-8.2
			c0.1-0.2,0.1-0.3,0.2-0.5c0.2-0.5,0.4-1,0.6-1.6l0.2-0.4c0-0.1,0.1-0.2,0.1-0.3c0.8-2.2,1.5-4,2-5.6c0-0.1,0.1-0.3,0.1-0.4
			c0.3-0.8,0.5-1.6,0.7-2.4c0-0.1,0-0.2,0.1-0.3c0.5-1.6,0.9-3.4,1.4-5.7c0.1-0.6,0.3-1.3,0.4-2c0-0.2,0.1-0.3,0.1-0.5
			c0.5-2.5,0.8-4.9,1.1-7.2c0-0.3,0-0.5,0.1-0.8c0.2-2.2,0.3-4.5,0.3-7.3c0-0.2,0-0.4,0-0.6l0-0.9c0-0.1,0-0.2,0-0.3
			c0-1.8-0.1-3.6-0.3-5.3c-0.1-0.6-0.1-1.1-0.2-1.7c-0.2-1.8-0.5-3.5-0.9-5.5c-0.1-0.3-0.1-0.7-0.2-1c-0.4-1.7-0.9-3.4-1.5-5
			c-0.1-0.1-0.1-0.3-0.2-0.4c-3-7.8-7.5-13.2-13.5-16.1c-3.4-1.6-7.1-2.4-11.2-2.4c-24.8,0-48.7,24.6-60.5,47.4
			c-6.8,13.3-10.6,27.3-11.1,40.6c0,0.1,0,0.2,0,0.4c0,0.9,0,1.8,0,2.6c0,0.5,0,1,0,1.5l0,1c0.1,1.2,0.1,2.4,0.2,3.5l0,0.4
			c0.1,0.8,0.2,1.6,0.3,2.4c0,0.1,0,0.2,0,0.2c0.1,0.7,0.2,1.3,0.3,2c0,0.1,0,0.2,0.1,0.3c0.1,0.6,0.3,1.4,0.5,2.3
			c0.1,0.2,0.1,0.5,0.2,0.7c0.1,0.5,0.3,1.3,0.5,2c0.2,0.9,0.5,1.7,0.8,2.5c0.1,0.2,0.1,0.4,0.2,0.6c0.1,0.2,0.1,0.4,0.2,0.7
			c0.1,0.2,0.1,0.3,0.2,0.5c0.4,0.9,0.7,1.9,1.2,2.8c0.2,0.3,0.4,0.7,0.6,1c0.1,0.1,0.1,0.2,0.1,0.3c0.3,0.6,0.7,1.3,1.2,2.1
			c0.2,0.3,0.4,0.6,0.5,0.9c0.6,0.8,1.1,1.5,1.6,2.1l0.3,0.4c0.2,0.2,0.4,0.5,0.6,0.7c0.4,0.5,0.9,1,1.6,1.6
			c0.1,0.1,0.3,0.3,0.4,0.4c0,0,0,0,0,0C663.5,384,664.1,384.5,664.8,385z"/>
		<path class="st0" d="M519.8,321.6C519.8,321.6,519.8,321.6,519.8,321.6c-1.7,0-3.5-0.1-5.2-0.2c-0.1,0-0.1,0-0.2,0
			c-3.8-0.3-7.7-0.8-11.7-1.8c-1.3-0.3-2.4-0.6-3.1-0.8l-0.3-0.1c-0.1,0-0.2-0.1-0.3-0.1c-2.9-0.8-5.8-1.7-8.4-2.8
			c-0.8-0.3-1.7-0.7-2.6-1c-0.2-0.1-0.4-0.2-0.7-0.3c-3-1.3-5.8-2.8-8.6-4.4l-0.8-0.4c-0.4-0.2-0.8-0.4-1.2-0.7
			c-6.7-4.2-13.1-9.3-18.8-15.3c-0.5-0.5-0.9-1-1.4-1.5c-2.4-2.6-4.8-5.4-7-8.3c-0.1-0.1-0.1-0.2-0.2-0.2c-0.1-0.2-0.3-0.3-0.4-0.5
			c-0.1-0.1-0.2-0.2-0.2-0.3c-16.8-23-25.5-52.6-24.4-83.5c2.2-62.3,43.9-111.1,94.8-111.1c1.7,0,3.5,0.1,5.2,0.2
			c23.6,1.5,45.8,13.6,62.4,33.9c0.3,0.3,0.5,0.6,0.7,1c0.1,0.1,0.2,0.2,0.2,0.3c2.1,2.6,4.1,5.5,6,8.4c0.5,0.8,1.1,1.6,1.6,2.5
			c1.5,2.4,3,5,4.6,8.2l0.2,0.4c0.3,0.6,0.6,1.2,0.9,1.8c0,0.1,0.1,0.2,0.1,0.3c3.5,7.3,6.4,15,8.6,23.1c0.2,0.6,0.4,1.4,0.5,2.2
			l0,0.1c0.1,0.2,0.1,0.4,0.1,0.6c0.8,3.5,1.5,6.4,2,9.4c0,0.1,0,0.3,0.1,0.4l0.1,0.4c0.2,1,0.3,2,0.5,3.1c0.5,3.3,0.8,6.3,1,9.3
			c0,0.1,0,0.2,0,0.3c0,0.3,0,0.5,0.1,0.8c0.1,0.7,0.1,1.5,0.2,2.2c0,0.1,0,0.2,0,0.2c0.2,4.7,0.3,8.9,0.2,12.9
			C612.4,272.8,570.7,321.6,519.8,321.6z M518.1,268.7c0.6,0,1.1,0.1,1.7,0.1c22,0,40.9-27,42.1-60.2c0.1-2.4,0-5-0.1-8.2
			c0-0.3,0-0.5-0.1-0.8c-0.1-0.6-0.1-1.2-0.1-1.8c-0.1-1.8-0.4-3.7-0.7-5.8c-0.1-0.7-0.2-1.5-0.3-2.2l0-0.2
			c-0.3-1.6-0.7-3.4-1.2-5.5c-0.2-0.6-0.3-1.2-0.4-1.9l0-0.1c-1.3-4.8-3-9.3-5-13.4l-0.1-0.2c-0.3-0.5-0.5-1-0.8-1.5
			c-0.9-1.8-1.7-3.2-2.5-4.4c-0.1-0.2-0.2-0.3-0.3-0.5c-0.2-0.3-0.4-0.6-0.6-0.9c-1-1.5-2-3-3.1-4.3c-0.4-0.5-0.7-0.9-1-1.3
			c-5.1-6.2-13.5-13.4-24.5-14.1c-22.8-1.5-42.6,26-43.8,60.1c-0.7,18.6,4.4,36.8,14,50c0.3,0.4,0.6,0.7,0.8,1.1
			c1.1,1.4,2.2,2.7,3.3,3.9c0.1,0.2,0.3,0.3,0.4,0.5l0.3,0.4c2.5,2.6,5.1,4.8,7.9,6.6c0.4,0.2,0.8,0.5,1.2,0.7c1,0.6,2,1.1,3.1,1.6
			c0.5,0.2,0.9,0.4,1.4,0.6c1,0.4,2,0.7,3,1c0.4,0.1,0.7,0.2,1.1,0.3l0,0c0.1,0,0.1,0,0.2,0C515.5,268.4,516.9,268.6,518.1,268.7z"
			/>
	</g>
</g>
</svg>
