<?xml version="1.0" encoding="utf-8"?>
<!-- Generator: Adobe Illustrator 23.1.0, SVG Export Plug-In . SVG Version: 6.00 Build 0)  -->
<svg version="1.1" id="图层_1" xmlns="http://www.w3.org/2000/svg" xmlns:xlink="http://www.w3.org/1999/xlink" x="0px" y="0px"
	 viewBox="0 0 96 86" style="enable-background:new 0 0 96 86;" xml:space="preserve">
<g>
	<path d="M7.7,75H4.4v-1.1c0-0.6-0.1-0.8-0.2-1c-0.1-0.1-0.2-0.2-0.5-0.2c-0.2,0-0.4,0.1-0.5,0.3S3,73.5,3,73.9
		c0,0.5,0.1,0.9,0.2,1.1c0.1,0.3,0.5,0.6,1,0.9c1.6,1,2.6,1.8,2.9,2.6c0.4,0.6,0.6,1.8,0.6,3.2c0,1.1-0.1,1.8-0.3,2.4
		c-0.2,0.5-0.7,0.9-1.3,1.3c-0.4,0.4-1.2,0.6-2,0.6c-0.9,0-1.7-0.2-2.4-0.6C1,85.1,0.6,84.5,0.4,84c-0.2-0.6-0.3-1.5-0.3-2.6v-1h3.2
		v1.8c0,0.6,0.1,0.9,0.2,1.1s0.2,0.3,0.5,0.3c0.2,0,0.5-0.4,0.6-0.6s0.2-0.5,0.2-0.9c0-0.9-0.1-1.5-0.3-1.8
		c-0.2-0.3-0.8-0.7-1.7-1.4c-0.8-0.6-1.4-1.1-1.7-1.4s-0.5-0.7-0.7-1.2c-0.2-0.6-0.3-1.2-0.3-2c0-1.2,0.2-2,0.4-2.5s0.7-0.9,1.3-1.3
		S3.1,70,3.9,70c0.9,0,1.7,0.2,2.3,0.5c0.7,0.4,1.1,0.7,1.3,1.3c0.2,0.6,0.3,1.4,0.3,2.6L7.7,75L7.7,75z"/>
	<path d="M14.7,70.5v15.1h-3.5V70.5H14.7z"/>
	<path d="M26.1,70.5v15.1H23l-1.8-6.8v6.8h-2.9V70.5h2.9l2,6.8v-6.8H26.1z"/>
	<path d="M37.8,77h-3.5v-2.6c0-0.7,0-1.2-0.1-1.4s-0.2-0.3-0.5-0.3s-0.5,0.1-0.5,0.4s-0.1,0.7-0.1,1.5v7c0,0.7,0,1.2,0.1,1.4
		s0.2,0.4,0.5,0.4s0.5-0.1,0.5-0.4s0.2-0.7,0.2-1.6v-1.8h3.5v0.6c0,1.6-0.1,2.7-0.3,3.3c-0.2,0.6-0.6,1.2-1.3,1.8
		c-0.7,0.6-1.5,0.7-2.5,0.7c-1.1,0-1.9-0.2-2.6-0.6c-0.7-0.5-1.1-1-1.4-1.8c-0.2-0.7-0.3-1.8-0.3-3.3v-4.4c0-1.1,0-1.9,0.1-2.4
		s0.3-1,0.6-1.6c0.3-0.5,0.8-0.9,1.4-1.2c0.6-0.3,1.3-0.5,2-0.5c1.1,0,1.9,0.2,2.6,0.6c0.7,0.5,1.1,1,1.4,1.7
		c0.2,0.6,0.3,1.7,0.3,3.1L37.8,77L37.8,77z"/>
	<path d="M41.1,70.5h5.8v3.1h-2.3v2.9h2.2v2.9h-2.2v3.3h2.6v3.1h-6C41.1,85.6,41.1,70.5,41.1,70.5z"/>
	<path d="M62.6,82.9v2.6h-7.4v-2.1c2.2-4,3.5-6.5,3.9-7.5c0.5-1,0.6-1.7,0.6-2.2c0-0.4-0.1-0.7-0.2-0.9c-0.2-0.2-0.3-0.3-0.6-0.3
		s-0.5,0.1-0.6,0.4s-0.2,0.6-0.2,1.3v1.4h-3V75c0-0.8,0-1.5,0.1-2s0.3-0.9,0.6-1.5c0.3-0.5,0.7-0.8,1.2-1.1s1-0.4,1.7-0.4
		c1.4,0,2.3,0.4,3,1.1s1.1,1.7,1.1,2.8c0,0.8-0.2,1.8-0.6,2.8c-0.4,0.9-1.5,3.1-3.4,6.1L62.6,82.9L62.6,82.9z"/>
	<path d="M74,75.5v5c0,1.1-0.1,1.9-0.2,2.5s-0.4,1-0.7,1.5c-0.4,0.5-0.8,0.7-1.3,1c-0.5,0.2-1.1,0.3-1.7,0.3c-0.8,0-1.5-0.1-2-0.3
		c-0.5-0.2-1-0.6-1.3-0.9c-0.3-0.5-0.5-0.9-0.7-1.4s-0.2-1.3-0.2-2.3v-5.3c0-1.4,0.1-2.4,0.3-3.1c0.2-0.7,0.7-1.2,1.3-1.7
		c0.6-0.5,1.4-0.6,2.3-0.6c0.8,0,1.4,0.2,2,0.5c0.5,0.3,1.1,0.6,1.3,1c0.2,0.4,0.5,0.9,0.6,1.4C73.9,73.6,74,74.4,74,75.5z
		 M70.6,74.3c0-0.8,0-1.3-0.1-1.5s-0.2-0.3-0.5-0.3s-0.4,0.1-0.5,0.4c-0.1,0.2-0.2,0.7-0.2,1.5v7.4c0,0.9,0,1.4,0.1,1.6
		s0.2,0.3,0.5,0.3c0.2,0,0.4-0.1,0.5-0.3c0.1-0.2,0.1-0.6,0.1-1.4L70.6,74.3L70.6,74.3z"/>
	<path d="M85.2,75.5v5c0,1.1-0.1,1.9-0.2,2.5s-0.4,1-0.7,1.5c-0.4,0.5-0.8,0.7-1.3,1c-0.5,0.2-1.1,0.3-1.7,0.3c-0.8,0-1.5-0.1-2-0.3
		c-0.5-0.2-1-0.6-1.3-0.9c-0.3-0.5-0.5-0.9-0.7-1.4s-0.2-1.3-0.2-2.3v-5.3c0-1.4,0.1-2.4,0.3-3.1c0.2-0.7,0.7-1.2,1.3-1.7
		c0.6-0.5,1.4-0.6,2.3-0.6c0.8,0,1.4,0.2,2,0.5c0.5,0.3,1.1,0.6,1.3,1c0.2,0.4,0.5,0.9,0.6,1.4C85.2,73.6,85.2,74.4,85.2,75.5z
		 M81.9,74.3c0-0.8,0-1.3-0.1-1.5s-0.2-0.3-0.5-0.3s-0.4,0.1-0.5,0.4c-0.1,0.2-0.2,0.7-0.2,1.5v7.4c0,0.9,0,1.4,0.1,1.6
		s0.2,0.3,0.5,0.3s0.4-0.1,0.5-0.3c0.1-0.2,0.1-0.6,0.1-1.4L81.9,74.3L81.9,74.3z"/>
	<path d="M95.8,82.9v2.6h-7.4v-2.1c2.2-4,3.5-6.5,3.9-7.5s0.6-1.7,0.6-2.2c0-0.4-0.1-0.7-0.2-0.9c-0.2-0.2-0.3-0.3-0.6-0.3
		c-0.3,0-0.5,0.1-0.6,0.4s-0.2,0.6-0.2,1.3v1.4h-3V75c0-0.8,0-1.5,0.1-2c0.1-0.6,0.3-0.9,0.6-1.5c0.3-0.5,0.7-0.8,1.2-1.1
		c0.5-0.3,1.1-0.4,1.7-0.4c1.4,0,2.3,0.4,3,1.1s1.1,1.7,1.1,2.8c0,0.8-0.2,1.8-0.6,2.8c-0.4,0.9-1.5,3.1-3.4,6.1L95.8,82.9
		L95.8,82.9z"/>
</g>
<g>
	<polygon points="55.7,48.2 68,48.2 68,36.9 	"/>
	<path d="M68,21.9V11.3H39.3V0H9.9C4.4,0,0,4.4,0,9.9v39.8c0,5.4,4.4,9.9,9.9,9.9h29.5V48.2L68,21.9z"/>
</g>
<g>
	<path d="M58.2,0C63.6,0,68,4.4,68,9.9v1.5h11.6L68,21.9v15l28-25.6V0H58.2z"/>
	<path d="M68,49.7c0,5.4-4.4,9.9-9.9,9.9H96V48.2H68V49.7z"/>
</g>
</svg>
