<?xml version="1.0" encoding="utf-8"?>
<!-- Generator: Adobe Illustrator 23.1.0, SVG Export Plug-In . SVG Version: 6.00 Build 0)  -->
<svg version="1.1" id="图层_1" xmlns="http://www.w3.org/2000/svg" xmlns:xlink="http://www.w3.org/1999/xlink" x="0px" y="0px"
	 viewBox="0 0 368.5 79.4" style="enable-background:new 0 0 368.5 79.4;" xml:space="preserve">
<style type="text/css">
	.st0{fill:#FF6D34;}
	.st1{fill:#002C60;}
</style>
<g>
	<polygon class="st0" points="55.7,48.2 68,48.2 68,36.9 	"/>
	<path class="st0" d="M68,21.9V11.3H39.3V0H9.9C4.4,0,0,4.4,0,9.9v39.8c0,5.4,4.4,9.9,9.9,9.9h29.5V48.2L68,21.9z"/>
</g>
<g>
	<path class="st1" d="M58.2,0C63.6,0,68,4.4,68,9.9v1.5h11.6L68,21.9v15l28-25.6V0H58.2z"/>
	<path class="st1" d="M68,49.7c0,5.4-4.4,9.9-9.9,9.9H96V48.2H68V49.7z"/>
</g>
<path class="st1" d="M170,47.2c3.3,1.3,5.8,2.2,7.5,2.6c-0.7,3.4-1.4,6.2-1.9,8.3c-0.6,2.2-1.7,3.5-3.1,4.3s-3.3,1.1-5.4,1.1H162
	c-5.7,0-8.6-2.7-8.6-8.1V37.9h-7.6c-0.6,12.8-5.7,21.7-15.7,26.6c-1.4-1.6-3.2-3.7-5.7-6.3c8.8-4.1,13.3-10.8,13.7-20.3h-13.1v-7.4
	h52v7.4h-15.9v15.1c0,2.6,1.1,3.9,3.3,3.9h1.7c1.1,0,1.8-0.5,2.3-1.4S169.4,51.8,170,47.2z M129.3,14.9h43.2v7.3h-43.2V14.9z"/>
<path class="st1" d="M198.1,12.7l7.4,2c-1.2,4.5-2.6,8.7-4.2,12.8v38.8h-7V42c-1.2,2.1-2.5,4.1-3.8,6c-0.5-2.2-1.2-5.6-2.2-10.1
	C192.7,30.1,196,21.8,198.1,12.7z M219.6,66.6V54.1h-6.7v3.4h-7.2V21.3h13.8v-8.6h7.2v8.7h13.8v35.9h-7.2v-3.3h-6.7v12.6
	C226.7,66.6,219.6,66.6,219.6,66.6z M212.9,34.5h6.7v-6.3h-6.7V34.5z M212.9,47.2h6.7v-6.3h-6.7V47.2z M233.5,28.1h-6.7v6.3h6.7
	V28.1z M226.8,47.2h6.7v-6.3h-6.7V47.2z"/>
<path class="st0" d="M250.6,49.4c3.5-4.2,6.2-8.9,8.1-13.9H251v-7h7.8v-6.2l-6.7,0.6c-0.4-2.5-0.8-4.7-1.3-6.5
	c7.6-0.6,14.5-1.3,20.9-2.2l2.1,6.4c-2.5,0.4-5.1,0.7-7.9,1.1v6.9h7.1v7H266v4.7l2.7-2.5c2.7,2.3,4.9,4.4,6.7,6.3l-4.6,4.2
	c-1.8-2.1-3.4-3.9-4.7-5.4v23.6H259V48.1c-1.8,3.6-3.6,7-5.8,10C252.5,55.7,251.6,52.8,250.6,49.4z M271.7,47.8l17.8-1.6V12.7h7.7
	v32.7l7.5-0.7l0.6,7l-8.1,0.7v14.1h-7.7V53.2l-16.8,1.5L271.7,47.8z M277.9,30.6c3.3,2.3,6.3,4.9,9.3,7.7l-5.1,5
	c-2.5-2.7-5.5-5.3-8.9-7.9L277.9,30.6z M279.8,16.6c2.8,2.1,5.8,4.6,9.2,7.7l-5.1,5c-2.7-2.9-5.6-5.6-8.8-8.1L279.8,16.6z"/>
<path class="st0" d="M315,22.4h6.2v-9.6h7v9.6h4.6v7.1h-4.6v8.1l4.9-1c-0.2,3.1-0.2,5.5-0.2,7.1l-4.6,1.2v14.3
	c0,2.3-0.6,4.2-1.7,5.3c-1.2,1.2-4.4,1.7-9.5,1.7c-0.3-1.9-0.9-4.3-1.9-7.4c1.4,0.1,2.7,0.1,3.6,0.1s1.6-0.2,2-0.6
	c0.3-0.3,0.5-1,0.5-2.1v-9.8l-5.9,1.5l-0.8-7.8l6.6-1.3v-9.4H315V22.4z M367.2,27.1H354v6h12v6.6c-2.2,5.2-5.5,10-9.6,14
	c3.6,2.1,7.7,3.8,12.2,5.1c-1.7,3.1-3.3,5.6-4.4,7.3c-5.1-1.9-9.8-4.4-14-7.4c-4.3,3-9.4,5.6-15.2,7.8c-1.2-2.1-2.7-4.4-4.3-7.1
	c5.1-1.7,9.5-3.6,13.2-5.8c-3-2.9-5.8-6.3-8.2-9.9l6.2-3.6c2.2,3.5,5,6.6,8.2,9.3c3.3-2.8,5.8-6,7.4-9.5h-23.2v-6.8h12.1v-6h-12
	v-6.6h12v-7.8h7.9v7.8h13.1V27.1z"/>
<path class="st1" d="M8.9,69.4H4.2c-0.5,0-0.9,0.1-1.1,0.3c-0.2,0.2-0.3,0.6-0.3,1.2v0.3c0,0.5,0.1,0.9,0.2,1.1
	c0.1,0.2,0.5,0.3,1.2,0.3H7c0.8,0,1.4,0.2,1.8,0.6s0.5,1.2,0.5,2.2v0.9c0,0.6,0,1.1-0.1,1.5c-0.1,0.3-0.3,0.6-0.5,0.8
	c-0.3,0.2-0.6,0.4-1,0.5c-0.4,0.1-0.9,0.1-1.5,0.1H2.4c-0.7,0-1.1-0.4-1.4-1.3h4.8c0.7,0,1.1-0.1,1.3-0.3c0.2-0.2,0.3-0.6,0.3-1.3
	v-0.6c0-0.7-0.1-1.2-0.3-1.4s-0.5-0.4-1-0.4H3.6c-0.9,0-1.6-0.2-2-0.6c-0.4-0.4-0.6-1-0.6-1.9V71c0-0.6,0-1.1,0.1-1.4
	c0.1-0.3,0.2-0.6,0.4-0.8c0.2-0.3,0.5-0.5,0.9-0.6c0.4-0.1,0.9-0.2,1.5-0.2h3.6C8.2,68.1,8.7,68.5,8.9,69.4z"/>
<path class="st1" d="M14.5,79.4h-1.9V68.1h1.9V79.4z"/>
<path class="st1" d="M17.6,68.1h1.7c0.4,0,0.8,0.1,0.9,0.2c0.2,0.1,0.4,0.5,0.6,1l3.7,7.8v-9h1.8v11.3l-1.8,0
	c-0.4,0-0.7-0.1-0.8-0.3s-0.4-0.6-0.8-1.4l-3.6-7.5v9.2h-1.8V68.1z"/>
<path class="st1" d="M37.6,78.1c-0.2,0.9-0.7,1.3-1.5,1.3h-3.1c-0.9,0-1.5-0.1-2-0.2c-0.5-0.1-0.8-0.3-1.1-0.6
	c-0.2-0.2-0.4-0.6-0.6-1.1C29.1,77,29,76.5,29,76v-4.5c0-1.4,0.3-2.3,0.9-2.7c0.3-0.2,0.6-0.4,0.9-0.5c0.4-0.1,1.2-0.2,2.1-0.2h3.1
	c0.8,0,1.3,0.4,1.5,1.3h-5c-0.6,0-1,0.2-1.3,0.5c-0.3,0.3-0.4,0.9-0.4,1.6v4.2c0,0.9,0.1,1.5,0.3,1.8c0.3,0.4,0.7,0.6,1.4,0.6H37.6z
	"/>
<path class="st1" d="M48.8,79.4H42c-0.6,0-1.1-0.1-1.3-0.4c-0.3-0.3-0.4-0.8-0.4-1.5v-7.9c0-0.5,0.1-0.9,0.4-1.1
	c0.2-0.2,0.7-0.3,1.3-0.3h6.6v1.3h-6.4v8.7h6.6V79.4z M42.2,72.9H48l0.5,1.3h-5.7L42.2,72.9z"/>
<path class="st1" d="M55.7,79.4v-3.6c0-0.8,0.2-1.4,0.5-1.7c0.3-0.3,1-0.6,2-0.8l1.4-0.3c0.7-0.2,1.1-0.3,1.3-0.5s0.3-0.5,0.3-0.9
	v-1c0-0.4-0.1-0.7-0.3-0.8c-0.2-0.1-0.6-0.2-1.3-0.2h-4.1c0.2-0.9,0.7-1.3,1.4-1.3h3.9c0.8,0,1.4,0.2,1.7,0.6c0.3,0.4,0.5,1,0.5,1.8
	v1.4c0,0.6-0.2,1.1-0.5,1.4c-0.4,0.4-0.9,0.6-1.7,0.8L59,74.5c-0.5,0.1-0.9,0.3-1.1,0.5s-0.3,0.4-0.3,0.7V78h6.1v1.3H55.7z"/>
<path class="st1" d="M71.2,79.4h-1.6c-1,0-1.8-0.2-2.3-0.6c-0.4-0.3-0.6-0.6-0.8-1c-0.2-0.6-0.3-1.4-0.3-2.4v-3.3
	c0-1,0.1-1.8,0.3-2.3c0.2-0.5,0.5-0.9,0.9-1.2c0.6-0.4,1.3-0.6,2.2-0.6h1.6c1.2,0,2.1,0.3,2.6,0.9c0.5,0.6,0.7,1.7,0.7,3.2v3.3
	c0,1.5-0.3,2.6-0.9,3.2C73.2,79.1,72.4,79.4,71.2,79.4z M72.7,75v-2.7c0-0.8-0.1-1.4-0.2-1.8c-0.1-0.4-0.3-0.7-0.7-0.9
	c-0.4-0.2-0.8-0.3-1.4-0.3c-0.7,0-1.3,0.1-1.6,0.4c-0.2,0.2-0.4,0.5-0.5,0.9c-0.1,0.4-0.1,1-0.1,1.7V75c0,0.6,0,1.1,0.1,1.5
	s0.2,0.6,0.4,0.9c0.3,0.4,0.9,0.6,1.8,0.6c0.9,0,1.4-0.2,1.7-0.6C72.5,76.9,72.7,76.1,72.7,75z"/>
<path class="st1" d="M81.9,79.4h-1.6c-1,0-1.8-0.2-2.3-0.6c-0.4-0.3-0.6-0.6-0.8-1c-0.2-0.6-0.3-1.4-0.3-2.4v-3.3
	c0-1,0.1-1.8,0.3-2.3c0.2-0.5,0.5-0.9,0.9-1.2c0.6-0.4,1.3-0.6,2.2-0.6H82c1.2,0,2.1,0.3,2.6,0.9c0.5,0.6,0.7,1.7,0.7,3.2v3.3
	c0,1.5-0.3,2.6-0.9,3.2C83.9,79.1,83.1,79.4,81.9,79.4z M83.4,75v-2.7c0-0.8-0.1-1.4-0.2-1.8c-0.1-0.4-0.3-0.7-0.7-0.9
	c-0.4-0.2-0.8-0.3-1.4-0.3c-0.7,0-1.3,0.1-1.6,0.4c-0.2,0.2-0.4,0.5-0.5,0.9c-0.1,0.4-0.1,1-0.1,1.7V75c0,0.6,0,1.1,0.1,1.5
	s0.2,0.6,0.4,0.9c0.3,0.4,0.9,0.6,1.8,0.6c0.9,0,1.4-0.2,1.7-0.6C83.3,76.9,83.4,76.1,83.4,75z"/>
<path class="st1" d="M88,79.4v-3.6c0-0.8,0.2-1.4,0.5-1.7c0.3-0.3,1-0.6,2-0.8l1.4-0.3c0.7-0.2,1.1-0.3,1.3-0.5s0.3-0.5,0.3-0.9v-1
	c0-0.4-0.1-0.7-0.3-0.8c-0.2-0.1-0.6-0.2-1.3-0.2h-4.1c0.2-0.9,0.7-1.3,1.4-1.3h3.9c0.8,0,1.4,0.2,1.7,0.6c0.3,0.4,0.5,1,0.5,1.8
	v1.4c0,0.6-0.2,1.1-0.5,1.4c-0.4,0.4-0.9,0.6-1.7,0.8l-1.9,0.5c-0.5,0.1-0.9,0.3-1.1,0.5c-0.2,0.2-0.3,0.4-0.3,0.7V78H96v1.3H88z"/>
</svg>
