<?xml version="1.0" encoding="utf-8"?>
<!-- Generator: Adobe Illustrator 23.1.0, SVG Export Plug-In . SVG Version: 6.00 Build 0)  -->
<svg version="1.1" id="图层_1" xmlns="http://www.w3.org/2000/svg" xmlns:xlink="http://www.w3.org/1999/xlink" x="0px" y="0px"
	 viewBox="0 0 379.8 86" style="enable-background:new 0 0 379.8 86;" xml:space="preserve">
<style type="text/css">
	.st0{fill:#F2E000;}
	.st1{fill:#353535;}
</style>
<rect x="215.4" y="77.5" class="st0" width="164.4" height="8.5"/>
<g>
	<path d="M7.7,75H4.4v-1.1c0-0.6-0.1-0.8-0.2-1c-0.1-0.1-0.2-0.2-0.5-0.2c-0.2,0-0.4,0.1-0.5,0.3S3,73.5,3,73.9
		c0,0.5,0.1,0.9,0.2,1.1c0.1,0.3,0.5,0.6,1,0.9c1.6,1,2.6,1.8,2.9,2.6c0.4,0.6,0.6,1.8,0.6,3.2c0,1.1-0.1,1.8-0.3,2.4
		c-0.2,0.5-0.7,0.9-1.3,1.3c-0.4,0.4-1.2,0.6-2,0.6c-0.9,0-1.7-0.2-2.4-0.6C1,85.1,0.6,84.5,0.4,84c-0.2-0.6-0.3-1.5-0.3-2.6v-1h3.2
		v1.8c0,0.6,0.1,0.9,0.2,1.1s0.2,0.3,0.5,0.3c0.2,0,0.5-0.4,0.6-0.6s0.2-0.5,0.2-0.9c0-0.9-0.1-1.5-0.3-1.8
		c-0.2-0.3-0.8-0.7-1.7-1.4c-0.8-0.6-1.4-1.1-1.7-1.4s-0.5-0.7-0.7-1.2c-0.2-0.6-0.3-1.2-0.3-2c0-1.2,0.2-2,0.4-2.5s0.7-0.9,1.3-1.3
		S3.1,70,3.9,70c0.9,0,1.7,0.2,2.3,0.5c0.7,0.4,1.1,0.7,1.3,1.3c0.2,0.6,0.3,1.4,0.3,2.6L7.7,75L7.7,75z"/>
	<path d="M14.7,70.5v15.1h-3.5V70.5H14.7z"/>
	<path d="M26.1,70.5v15.1H23l-1.8-6.8v6.8h-2.9V70.5h2.9l2,6.8v-6.8H26.1z"/>
	<path d="M37.8,77h-3.5v-2.6c0-0.7,0-1.2-0.1-1.4s-0.2-0.3-0.5-0.3s-0.5,0.1-0.5,0.4s-0.1,0.7-0.1,1.5v7c0,0.7,0,1.2,0.1,1.4
		s0.2,0.4,0.5,0.4s0.5-0.1,0.5-0.4s0.2-0.7,0.2-1.6v-1.8h3.5v0.6c0,1.6-0.1,2.7-0.3,3.3c-0.2,0.6-0.6,1.2-1.3,1.8
		c-0.7,0.6-1.5,0.7-2.5,0.7c-1.1,0-1.9-0.2-2.6-0.6c-0.7-0.5-1.1-1-1.4-1.8c-0.2-0.7-0.3-1.8-0.3-3.3v-4.4c0-1.1,0-1.9,0.1-2.4
		s0.3-1,0.6-1.6c0.3-0.5,0.8-0.9,1.4-1.2c0.6-0.3,1.3-0.5,2-0.5c1.1,0,1.9,0.2,2.6,0.6c0.7,0.5,1.1,1,1.4,1.7
		c0.2,0.6,0.3,1.7,0.3,3.1L37.8,77L37.8,77z"/>
	<path d="M41.1,70.5h5.8v3.1h-2.3v2.9h2.2v2.9h-2.2v3.3h2.6v3.1h-6C41.1,85.6,41.1,70.5,41.1,70.5z"/>
	<path d="M62.6,82.9v2.6h-7.4v-2.1c2.2-4,3.5-6.5,3.9-7.5c0.5-1,0.6-1.7,0.6-2.2c0-0.4-0.1-0.7-0.2-0.9c-0.2-0.2-0.3-0.3-0.6-0.3
		s-0.5,0.1-0.6,0.4s-0.2,0.6-0.2,1.3v1.4h-3V75c0-0.8,0-1.5,0.1-2s0.3-0.9,0.6-1.5c0.3-0.5,0.7-0.8,1.2-1.1s1-0.4,1.7-0.4
		c1.4,0,2.3,0.4,3,1.1s1.1,1.7,1.1,2.8c0,0.8-0.2,1.8-0.6,2.8c-0.4,0.9-1.5,3.1-3.4,6.1L62.6,82.9L62.6,82.9z"/>
	<path d="M74,75.5v5c0,1.1-0.1,1.9-0.2,2.5s-0.4,1-0.7,1.5c-0.4,0.5-0.8,0.7-1.3,1c-0.5,0.2-1.1,0.3-1.7,0.3c-0.8,0-1.5-0.1-2-0.3
		c-0.5-0.2-1-0.6-1.3-0.9c-0.3-0.5-0.5-0.9-0.7-1.4s-0.2-1.3-0.2-2.3v-5.3c0-1.4,0.1-2.4,0.3-3.1c0.2-0.7,0.7-1.2,1.3-1.7
		c0.6-0.5,1.4-0.6,2.3-0.6c0.8,0,1.4,0.2,2,0.5c0.5,0.3,1.1,0.6,1.3,1c0.2,0.4,0.5,0.9,0.6,1.4C73.9,73.6,74,74.4,74,75.5z
		 M70.6,74.3c0-0.8,0-1.3-0.1-1.5s-0.2-0.3-0.5-0.3s-0.4,0.1-0.5,0.4c-0.1,0.2-0.2,0.7-0.2,1.5v7.4c0,0.9,0,1.4,0.1,1.6
		s0.2,0.3,0.5,0.3c0.2,0,0.4-0.1,0.5-0.3c0.1-0.2,0.1-0.6,0.1-1.4L70.6,74.3L70.6,74.3z"/>
	<path d="M85.2,75.5v5c0,1.1-0.1,1.9-0.2,2.5s-0.4,1-0.7,1.5c-0.4,0.5-0.8,0.7-1.3,1c-0.5,0.2-1.1,0.3-1.7,0.3c-0.8,0-1.5-0.1-2-0.3
		c-0.5-0.2-1-0.6-1.3-0.9c-0.3-0.5-0.5-0.9-0.7-1.4s-0.2-1.3-0.2-2.3v-5.3c0-1.4,0.1-2.4,0.3-3.1c0.2-0.7,0.7-1.2,1.3-1.7
		c0.6-0.5,1.4-0.6,2.3-0.6c0.8,0,1.4,0.2,2,0.5c0.5,0.3,1.1,0.6,1.3,1c0.2,0.4,0.5,0.9,0.6,1.4C85.2,73.6,85.2,74.4,85.2,75.5z
		 M81.9,74.3c0-0.8,0-1.3-0.1-1.5s-0.2-0.3-0.5-0.3s-0.4,0.1-0.5,0.4c-0.1,0.2-0.2,0.7-0.2,1.5v7.4c0,0.9,0,1.4,0.1,1.6
		s0.2,0.3,0.5,0.3s0.4-0.1,0.5-0.3c0.1-0.2,0.1-0.6,0.1-1.4L81.9,74.3L81.9,74.3z"/>
	<path d="M95.8,82.9v2.6h-7.4v-2.1c2.2-4,3.5-6.5,3.9-7.5s0.6-1.7,0.6-2.2c0-0.4-0.1-0.7-0.2-0.9c-0.2-0.2-0.3-0.3-0.6-0.3
		c-0.3,0-0.5,0.1-0.6,0.4s-0.2,0.6-0.2,1.3v1.4h-3V75c0-0.8,0-1.5,0.1-2c0.1-0.6,0.3-0.9,0.6-1.5c0.3-0.5,0.7-0.8,1.2-1.1
		c0.5-0.3,1.1-0.4,1.7-0.4c1.4,0,2.3,0.4,3,1.1s1.1,1.7,1.1,2.8c0,0.8-0.2,1.8-0.6,2.8c-0.4,0.9-1.5,3.1-3.4,6.1L95.8,82.9
		L95.8,82.9z"/>
</g>
<g>
	<polygon points="55.7,48.2 68,48.2 68,36.9 	"/>
	<path d="M68,21.9V11.3H39.3V0H9.9C4.4,0,0,4.4,0,9.9v39.8c0,5.4,4.4,9.9,9.9,9.9h29.5V48.2L68,21.9z"/>
</g>
<g>
	<path d="M58.2,0C63.6,0,68,4.4,68,9.9v1.5h11.6L68,21.9v15l28-25.6V0H58.2z"/>
	<path d="M68,49.7c0,5.4-4.4,9.9-9.9,9.9H96V48.2H68V49.7z"/>
</g>
<path d="M167.6,31.7c2.9,1.1,5.1,1.9,6.6,2.3c-0.6,3-1.2,5.4-1.7,7.3s-1.5,3.1-2.7,3.8s-2.9,1-4.7,1h-4.5c-5,0-7.5-2.4-7.5-7.1V23.5
	h-6.7c-0.5,11.2-5,19-13.8,23.3c-1.2-1.4-2.8-3.2-5-5.5c7.7-3.6,11.7-9.5,12-17.8h-11.5v-6.5h45.6v6.5h-13.9v13.2
	c0,2.3,1,3.4,2.9,3.4h1.5c1,0,1.6-0.4,2-1.2S167.1,35.7,167.6,31.7z M132,3.4h37.9v6.4H132V3.4z"/>
<path d="M204.9,0.9l6.3,1.7c-1,3.8-2.2,7.4-3.6,10.9v33.1h-6V25.8c-1,1.8-2.1,3.5-3.2,5.1c-0.4-1.9-1-4.8-1.9-8.6
	C200.3,15.7,203.1,8.6,204.9,0.9z M223.2,46.8V36.1h-5.7v2.9h-6.1V8.2h11.8V0.9h6.1v7.4h11.8v30.6h-6.1v-2.8h-5.7v10.7H223.2z
	 M217.5,19.4h5.7V14h-5.7V19.4z M217.5,30.3h5.7v-5.4h-5.7V30.3z M235.1,14h-5.7v5.4h5.7V14z M229.4,30.3h5.7v-5.4h-5.7V30.3z"/>
<path d="M263.4,32.1c3-3.6,5.3-7.6,6.9-11.9h-6.5v-6h6.7V8.9l-5.7,0.5c-0.3-2.1-0.7-4-1.1-5.6c6.5-0.5,12.4-1.1,17.9-1.9l1.8,5.5
	c-2.1,0.3-4.4,0.6-6.8,0.9v5.9h6.1v6h-6.1v4l2.3-2.1c2.3,2,4.2,3.8,5.7,5.4l-3.9,3.6c-1.5-1.8-2.9-3.3-4-4.6v20.2h-6.1V31
	c-1.5,3.1-3.1,6-5,8.6C265.1,37.5,264.3,35,263.4,32.1z M281.5,30.7l15.2-1.4V0.7h6.6v28l6.4-0.6l0.5,6l-6.9,0.6v12.1h-6.6V35.3
	l-14.4,1.3L281.5,30.7z M286.8,16c2.8,2,5.4,4.2,8,6.6l-4.4,4.3c-2.1-2.3-4.7-4.5-7.6-6.8L286.8,16z M288.4,4c2.4,1.8,5,3.9,7.9,6.6
	l-4.4,4.3c-2.3-2.5-4.8-4.8-7.5-6.9L288.4,4z"/>
<path d="M332,8.9h5.3V0.6h6v8.3h4V15h-4V22l4.2-0.9c-0.2,2.7-0.2,4.7-0.2,6.1l-4,1v12.3c0,2-0.5,3.6-1.5,4.6s-3.8,1.5-8.2,1.5
	c-0.3-1.6-0.8-3.7-1.6-6.4c1.2,0.1,2.3,0.1,3.1,0.1c0.8,0,1.4-0.2,1.7-0.5s0.4-0.9,0.4-1.8v-8.4l-5.1,1.3l-0.7-6.7l5.7-1.1V15H332
	V8.9z M377,13h-11.4v5.2h10.3v5.7c-1.9,4.5-4.7,8.6-8.3,12.1c3.1,1.8,6.6,3.3,10.5,4.4c-1.5,2.7-2.8,4.8-3.8,6.3
	c-4.4-1.6-8.4-3.8-12.1-6.4c-3.7,2.6-8.1,4.8-13.1,6.7c-1-1.8-2.3-3.8-3.7-6.1c4.4-1.5,8.2-3.1,11.4-5c-2.6-2.5-5-5.4-7.1-8.5
	l5.3-3.1c1.9,3,4.3,5.7,7.1,8c2.8-2.4,5-5.2,6.4-8.2h-20v-5.9h10.4V13h-10.3V7.3h10.3V0.6h6.8v6.7H377V13z"/>
<g>
	<path class="st1" d="M141.3,80h1v1.1h4.3V82h-4.3v1.5c0.1,1.5-0.7,2.3-2.5,2.3c-0.8,0-1.7,0-2.7,0c0-0.3-0.1-0.7-0.2-1.1
		c0.9,0,1.8,0.1,2.8,0.1c0.6,0,1-0.1,1.3-0.3c0.2-0.2,0.4-0.5,0.4-1V82h-12.9v-0.9h12.9V80z M144.3,76.9h-1.2
		c0.7,0.6,1.7,1.5,2.9,2.7l-0.8,0.7c-0.1-0.1-0.3-0.3-0.5-0.5c-0.2-0.2-0.4-0.4-0.5-0.5c-3.3,0-8.3,0.1-15,0.3l-0.1-1
		c1.8,0,4.4,0,7.8-0.1v-1.6h-6.5v-5.7h6.5v-1.5h-8v-0.9h8v-1.7h1v1.7h8.5v0.9h-8.5v1.5h6.5V76.9z M131.4,72.1v1.6h5.5v-1.6H131.4z
		 M131.4,74.5V76h5.5v-1.6H131.4z M131.6,82.8l0.7-0.7c0.8,0.6,1.8,1.3,2.9,2.2l-0.7,0.8C133.6,84.3,132.6,83.5,131.6,82.8z
		 M143.3,72.1h-5.5v1.6h5.5V72.1z M137.9,76h5.5v-1.6h-5.5V76z M142.2,77.5l0.7-0.5h-5v1.6c1.6,0,3.4,0,5.4-0.1
		c-0.2-0.2-0.4-0.4-0.7-0.7C142.4,77.6,142.3,77.5,142.2,77.5z"/>
	<path class="st1" d="M153.2,73.2l0.8-0.6c0.7,0.7,1.2,1.4,1.7,1.8l-0.6,0.4h4.1c0.6-0.6,1.2-1.4,1.9-2.3l0.9,0.6
		c-0.5,0.6-1,1.2-1.5,1.7h5.2v0.9h-7.7v1.8h6.3v0.9h-6.3v1.8h8.4V81h-7.2c1.5,1.3,4,2.3,7.6,3.2c-0.2,0.4-0.4,0.7-0.5,1
		c-3.9-1.1-6.6-2.4-8.2-4.1V86h-1v-4.9c-1.8,1.8-4.5,3.3-8.2,4.3c-0.1-0.2-0.3-0.6-0.5-1c3.3-0.8,5.8-2,7.6-3.4h-7.2v-0.9h8.4v-1.8
		h-6.7v-0.9h6.7v-1.8h-7.7v-0.9h5.3C154.1,74.2,153.6,73.6,153.2,73.2z M154.8,67.2h1v4.3h3.5v-4.3h1v4.3h6.5v0.9h-18.3v-0.9h6.3
		V67.2z M150,68.1l0.8-0.6c0.8,0.8,1.6,1.7,2.3,2.7l-0.9,0.7C151.6,70,150.8,69,150,68.1z M163,70.9l-0.8-0.7
		c0.7-0.7,1.5-1.6,2.3-2.7l0.9,0.6C164.5,69.3,163.7,70.2,163,70.9z"/>
	<path class="st1" d="M169.5,68.3h5.2v15.4c0,1.3-0.6,1.9-1.8,1.9c-0.2,0-0.4,0-0.6,0c-0.1,0-0.2,0-0.4,0c-0.1,0-0.3,0-0.5,0
		c0-0.3-0.1-0.6-0.2-1c0.4,0,0.9,0.1,1.5,0.1c0.7,0,1.1-0.3,1-1V79h-3.1c0,3-0.5,5.3-1.5,6.8c-0.2-0.2-0.5-0.4-0.8-0.7
		c0.6-0.9,0.9-1.8,1.1-2.7c0.2-0.9,0.3-2.3,0.3-4.1V68.3z M170.5,69.2v4h3.1v-4H170.5z M170.5,74.1v4h3.1v-4H170.5z M176.7,68.4h8.9
		c0,0.9-0.1,1.8-0.2,2.7c0,1.7-1,2.5-2.8,2.4c-0.3,0-0.6,0-1,0c-0.2,0-0.4,0-0.6,0c-0.2,0-0.4,0-0.8,0c0-0.4-0.1-0.7-0.2-1
		c0.3,0,0.7,0,1,0c0.2,0,0.3,0,0.5,0c0.2,0,0.4,0,0.8,0c0.8,0,1.3-0.1,1.5-0.3c0.3-0.2,0.4-0.5,0.5-1.1c0.1-0.7,0.1-1.3,0.1-1.8
		h-6.8v6h8.1v1c-0.8,2.5-1.8,4.4-2.9,5.7c0.9,0.9,2.2,1.8,4.1,2.7c-0.2,0.3-0.4,0.6-0.6,1c-1.8-1-3.2-1.9-4.2-2.9
		c-0.9,0.9-2,1.9-3.5,2.9c-0.3-0.3-0.5-0.6-0.8-0.9c1.6-1,2.8-2,3.5-2.8c-1.1-1.4-2-3.3-2.6-5.8h-1.3V86h-1V68.4z M184.8,76.3H180
		c0.6,2.1,1.3,3.8,2.3,5C183.2,80.1,184.1,78.4,184.8,76.3z"/>
	<path class="st1" d="M188.4,75.3v-0.9h7.8v1l-0.9,3.2c-0.3-0.1-0.7-0.2-1-0.3l0.9-3h-2.1v8.2c0,1.4-0.6,2.2-2.1,2.2
		c-0.4,0-0.9,0-1.7,0c-0.1-0.4-0.1-0.7-0.2-1.1c0.3,0,0.9,0,1.7,0c0.8,0,1.2-0.4,1.2-1.3v-6.4c-0.8,2.3-2,4.2-3.5,5.8
		c-0.2-0.4-0.4-0.8-0.6-1c1.8-1.8,3.2-4,4-6.5H188.4z M188.9,69.1v-0.9h7.2v1.1l-3.2,3.6c0.3,0.4,0.6,0.6,0.8,0.8l-0.8,0.6
		c-0.8-0.9-1.8-1.9-2.9-3l0.7-0.6c0.4,0.3,0.9,0.8,1.5,1.4l2.8-3H188.9z M196.5,78.4h3.4c0-0.3,0-0.8,0.1-1.4h1.1c0,0.5,0,1-0.1,1.4
		h5.1c-0.1,1.9-0.1,3.4-0.3,4.5c-0.1,1.9-1,2.8-2.8,2.7c-0.3,0-1,0-2.1,0c0-0.4-0.1-0.8-0.2-1.1c0.9,0.1,1.6,0.1,2.3,0.1
		c1.1,0.1,1.7-0.5,1.8-1.8c0.1-1,0.1-2.1,0.2-3.5h-4c-0.2,2.8-1.9,5-5.1,6.5c-0.2-0.2-0.4-0.5-0.7-0.9c3.1-1.4,4.7-3.3,4.8-5.6h-3.3
		V78.4z M206.4,76.7c-1.9-0.6-3.4-1.3-4.4-2c-1.2,0.8-2.8,1.5-4.9,2.1c-0.1-0.3-0.3-0.6-0.5-0.9c1.9-0.6,3.4-1.2,4.5-1.9
		c-1-0.8-1.7-1.7-2.3-2.9c-0.6,0.8-1.3,1.4-1.9,2c-0.1-0.1-0.3-0.3-0.7-0.6c-0.1,0-0.1-0.1-0.1-0.1c1.7-1.5,3.1-3.2,4.2-5.2l1,0.3
		c-0.3,0.4-0.6,1-1.1,1.7h5.8v1c-1,1.7-2,3-3.2,3.9c1.1,0.7,2.5,1.2,4.2,1.7C206.7,76.2,206.5,76.5,206.4,76.7z M204.9,70.1h-5.4
		c0,0,0,0,0,0.1c0,0,0,0.1,0,0.1c0.7,1.4,1.6,2.4,2.5,3.2C203.1,72.6,204,71.5,204.9,70.1z"/>
</g>
<g>
	<path class="st1" d="M224.3,76.7h4v2h-4V84H222v-5.3h-4v-2h4v-5.1h2.3V76.7z"/>
	<path class="st1" d="M239.5,73.1c0,0.9-0.2,1.7-0.6,2.4s-1,1.2-1.7,1.5c0.8,0.4,1.5,0.9,2,1.6s0.7,1.6,0.7,2.5
		c0,1.6-0.4,2.8-1.3,3.6s-2,1.2-3.5,1.2c-1.4,0-2.6-0.4-3.5-1.2s-1.3-2-1.3-3.6c0-1,0.2-1.8,0.7-2.5s1.2-1.3,2-1.6
		c-0.7-0.3-1.3-0.8-1.7-1.5s-0.6-1.5-0.6-2.3c0-1.5,0.4-2.6,1.2-3.5s1.9-1.2,3.2-1.2c1.3,0,2.4,0.4,3.2,1.2S239.5,71.7,239.5,73.1z
		 M237.5,81.1c0-0.9-0.2-1.7-0.7-2.3s-1-0.9-1.8-0.9c-0.7,0-1.3,0.3-1.8,0.9s-0.7,1.4-0.7,2.3c0,1,0.2,1.7,0.7,2.3s1,0.8,1.8,0.8
		c0.7,0,1.3-0.3,1.7-0.8S237.5,82,237.5,81.1z M237.1,73.2c0-0.9-0.2-1.6-0.6-2.1s-0.9-0.8-1.5-0.8c-0.6,0-1.1,0.3-1.5,0.8
		s-0.6,1.2-0.6,2.1c0,0.9,0.2,1.6,0.6,2.1c0.4,0.5,0.9,0.8,1.5,0.8c0.6,0,1.1-0.3,1.5-0.8C236.9,74.8,237.1,74.1,237.1,73.2z"/>
	<path class="st1" d="M251.2,73.1c0,0.9-0.2,1.7-0.6,2.4s-1,1.2-1.7,1.5c0.8,0.4,1.5,0.9,2,1.6s0.7,1.6,0.7,2.5
		c0,1.6-0.4,2.8-1.3,3.6s-2,1.2-3.5,1.2c-1.4,0-2.6-0.4-3.5-1.2s-1.3-2-1.3-3.6c0-1,0.2-1.8,0.7-2.5s1.2-1.3,2-1.6
		c-0.7-0.3-1.3-0.8-1.7-1.5s-0.6-1.5-0.6-2.3c0-1.5,0.4-2.6,1.2-3.5s1.9-1.2,3.2-1.2c1.3,0,2.4,0.4,3.2,1.2S251.2,71.7,251.2,73.1z
		 M249.2,81.1c0-0.9-0.2-1.7-0.7-2.3s-1-0.9-1.8-0.9c-0.7,0-1.3,0.3-1.8,0.9s-0.7,1.4-0.7,2.3c0,1,0.2,1.7,0.7,2.3s1,0.8,1.8,0.8
		c0.7,0,1.3-0.3,1.7-0.8S249.2,82,249.2,81.1z M248.8,73.2c0-0.9-0.2-1.6-0.6-2.1s-0.9-0.8-1.5-0.8c-0.6,0-1.1,0.3-1.5,0.8
		s-0.6,1.2-0.6,2.1c0,0.9,0.2,1.6,0.6,2.1c0.4,0.5,0.9,0.8,1.5,0.8c0.6,0,1.1-0.3,1.5-0.8C248.7,74.8,248.8,74.1,248.8,73.2z"/>
	<path class="st1" d="M259.5,68.4c0.5,0,1,0.1,1.5,0.2s0.9,0.3,1.3,0.5l-0.5,1.7c-0.4-0.2-0.7-0.4-1.1-0.5s-0.8-0.2-1.3-0.2
		c-1,0-1.7,0.5-2.3,1.4s-0.9,2.1-0.9,3.7v0.5c0.4-0.4,0.9-0.8,1.4-1s1.1-0.4,1.7-0.4c1.3,0,2.3,0.5,3.1,1.6s1.1,2.4,1.1,4.1
		c0,1.7-0.4,3.1-1.3,4.2s-2,1.7-3.4,1.7c-1.5,0-2.7-0.6-3.6-1.8c-0.9-1.2-1.4-2.9-1.4-5v-3.7c0-2.1,0.5-3.8,1.6-5.1
		C256.5,69.1,257.9,68.4,259.5,68.4z M258.8,76.2c-0.6,0-1.1,0.1-1.6,0.4c-0.4,0.3-0.8,0.7-1,1.2v1.6c0,1.5,0.2,2.7,0.7,3.6
		s1.1,1.3,1.9,1.3c0.7,0,1.3-0.4,1.7-1.2s0.6-1.8,0.6-2.9c0-1.2-0.2-2.1-0.6-2.8S259.6,76.2,258.8,76.2z"/>
	<path class="st1" d="M270.4,79.4h-5.2v-1.8h5.2V79.4z"/>
	<path class="st1" d="M275.4,76.2h1.6c0.8,0,1.4-0.3,1.7-0.8s0.5-1.2,0.5-2.1c0-0.9-0.2-1.7-0.6-2.2s-0.9-0.8-1.7-0.8
		c-0.7,0-1.2,0.3-1.6,0.8c-0.4,0.5-0.6,1.2-0.6,2.1h-2.3l0-0.1c0-1.3,0.4-2.4,1.2-3.3s2-1.3,3.3-1.3c1.4,0,2.5,0.4,3.4,1.3
		c0.8,0.8,1.3,2,1.3,3.6c0,0.8-0.2,1.5-0.6,2.2c-0.4,0.7-1,1.2-1.7,1.6c0.9,0.3,1.5,0.8,1.9,1.6c0.4,0.7,0.6,1.5,0.6,2.5
		c0,1.5-0.5,2.8-1.4,3.6S278.4,86,277,86c-1.3,0-2.5-0.4-3.4-1.3s-1.4-2-1.3-3.5l0-0.1h2.3c0,0.9,0.2,1.6,0.7,2.2s1,0.8,1.8,0.8
		c0.8,0,1.4-0.3,1.8-0.8s0.7-1.3,0.7-2.3c0-1.1-0.2-1.8-0.6-2.3c-0.4-0.5-1-0.8-1.9-0.8h-1.6V76.2z"/>
	<path class="st1" d="M289.2,79.4h-5.2v-1.8h5.2V79.4z"/>
	<path class="st1" d="M294.1,76.2h1.6c0.8,0,1.4-0.3,1.7-0.8s0.5-1.2,0.5-2.1c0-0.9-0.2-1.7-0.6-2.2s-0.9-0.8-1.7-0.8
		c-0.7,0-1.2,0.3-1.6,0.8c-0.4,0.5-0.6,1.2-0.6,2.1h-2.3l0-0.1c0-1.3,0.4-2.4,1.2-3.3s2-1.3,3.3-1.3c1.4,0,2.5,0.4,3.4,1.3
		c0.8,0.8,1.3,2,1.3,3.6c0,0.8-0.2,1.5-0.6,2.2c-0.4,0.7-1,1.2-1.7,1.6c0.9,0.3,1.5,0.8,1.9,1.6c0.4,0.7,0.6,1.5,0.6,2.5
		c0,1.5-0.5,2.8-1.4,3.6s-2.1,1.3-3.5,1.3c-1.3,0-2.5-0.4-3.4-1.3s-1.4-2-1.3-3.5l0-0.1h2.3c0,0.9,0.2,1.6,0.7,2.2s1,0.8,1.8,0.8
		c0.8,0,1.4-0.3,1.8-0.8s0.7-1.3,0.7-2.3c0-1.1-0.2-1.8-0.6-2.3c-0.4-0.5-1-0.8-1.9-0.8h-1.6V76.2z"/>
	<path class="st1" d="M308.6,68.4c0.5,0,1,0.1,1.5,0.2s0.9,0.3,1.3,0.5l-0.5,1.7c-0.4-0.2-0.7-0.4-1.1-0.5s-0.8-0.2-1.3-0.2
		c-1,0-1.7,0.5-2.3,1.4s-0.9,2.1-0.9,3.7v0.5c0.4-0.4,0.9-0.8,1.4-1s1.1-0.4,1.7-0.4c1.3,0,2.3,0.5,3.1,1.6s1.1,2.4,1.1,4.1
		c0,1.7-0.4,3.1-1.3,4.2s-2,1.7-3.4,1.7c-1.5,0-2.7-0.6-3.6-1.8s-1.4-2.9-1.4-5v-3.7c0-2.1,0.5-3.8,1.6-5.1S307,68.4,308.6,68.4z
		 M308,76.2c-0.6,0-1.1,0.1-1.6,0.4c-0.4,0.3-0.8,0.7-1,1.2v1.6c0,1.5,0.2,2.7,0.7,3.6s1.1,1.3,1.9,1.3c0.7,0,1.3-0.4,1.7-1.2
		s0.6-1.8,0.6-2.9c0-1.2-0.2-2.1-0.6-2.8S308.7,76.2,308,76.2z"/>
	<path class="st1" d="M320.3,68.4c0.5,0,1,0.1,1.5,0.2s0.9,0.3,1.3,0.5l-0.5,1.7c-0.4-0.2-0.7-0.4-1.1-0.5s-0.8-0.2-1.3-0.2
		c-1,0-1.7,0.5-2.3,1.4s-0.9,2.1-0.9,3.7v0.5c0.4-0.4,0.9-0.8,1.4-1s1.1-0.4,1.7-0.4c1.3,0,2.3,0.5,3.1,1.6s1.1,2.4,1.1,4.1
		c0,1.7-0.4,3.1-1.3,4.2s-2,1.7-3.4,1.7c-1.5,0-2.7-0.6-3.6-1.8s-1.4-2.9-1.4-5v-3.7c0-2.1,0.5-3.8,1.6-5.1S318.8,68.4,320.3,68.4z
		 M319.7,76.2c-0.6,0-1.1,0.1-1.6,0.4c-0.4,0.3-0.8,0.7-1,1.2v1.6c0,1.5,0.2,2.7,0.7,3.6s1.1,1.3,1.9,1.3c0.7,0,1.3-0.4,1.7-1.2
		s0.6-1.8,0.6-2.9c0-1.2-0.2-2.1-0.6-2.8S320.4,76.2,319.7,76.2z"/>
	<path class="st1" d="M331.3,79.4h-5.2v-1.8h5.2V79.4z"/>
	<path class="st1" d="M339.6,85.8h-2.4V71.1l-3.3,0.2v-1.5l5.7-1.1V85.8z"/>
	<path class="st1" d="M354.6,79.2c0,2.2-0.4,3.9-1.3,5.1s-2,1.8-3.5,1.8c-1.5,0-2.6-0.6-3.5-1.8s-1.3-2.9-1.3-5.1v-3.9
		c0-2.2,0.4-3.9,1.3-5.1s2-1.8,3.5-1.8s2.6,0.6,3.5,1.8s1.3,2.9,1.3,5.1V79.2z M352.2,74.9c0-1.5-0.2-2.7-0.6-3.5s-1-1.2-1.8-1.2
		s-1.3,0.4-1.8,1.2c-0.4,0.8-0.6,2-0.6,3.5v4.5c0,1.5,0.2,2.7,0.6,3.5s1,1.2,1.8,1.2c0.8,0,1.3-0.4,1.7-1.2s0.6-2,0.6-3.5V74.9z"/>
	<path class="st1" d="M366.3,79.2c0,2.2-0.4,3.9-1.3,5.1s-2,1.8-3.5,1.8c-1.5,0-2.6-0.6-3.5-1.8s-1.3-2.9-1.3-5.1v-3.9
		c0-2.2,0.4-3.9,1.3-5.1s2-1.8,3.5-1.8s2.6,0.6,3.5,1.8s1.3,2.9,1.3,5.1V79.2z M364,74.9c0-1.5-0.2-2.7-0.6-3.5s-1-1.2-1.8-1.2
		s-1.3,0.4-1.8,1.2c-0.4,0.8-0.6,2-0.6,3.5v4.5c0,1.5,0.2,2.7,0.6,3.5s1,1.2,1.8,1.2c0.8,0,1.3-0.4,1.7-1.2s0.6-2,0.6-3.5V74.9z"/>
	<path class="st1" d="M378.1,79.2c0,2.2-0.4,3.9-1.3,5.1s-2,1.8-3.5,1.8c-1.5,0-2.6-0.6-3.5-1.8s-1.3-2.9-1.3-5.1v-3.9
		c0-2.2,0.4-3.9,1.3-5.1s2-1.8,3.5-1.8s2.6,0.6,3.5,1.8s1.3,2.9,1.3,5.1V79.2z M375.7,74.9c0-1.5-0.2-2.7-0.6-3.5s-1-1.2-1.8-1.2
		s-1.3,0.4-1.8,1.2c-0.4,0.8-0.6,2-0.6,3.5v4.5c0,1.5,0.2,2.7,0.6,3.5s1,1.2,1.8,1.2c0.8,0,1.3-0.4,1.7-1.2s0.6-2,0.6-3.5V74.9z"/>
</g>
</svg>
